<svg xmlns="http://www.w3.org/2000/svg" version="1.1" xmlns:xlink="http://www.w3.org/1999/xlink" xmlns:svgjs="http://svgjs.dev/svgjs" width="1500" height="1500" viewBox="0 0 1500 1500"><rect width="1500" height="1500" fill="#ffffff"></rect><g transform="matrix(0.6666666666666666,0,0,0.6666666666666666,249.39393939393938,435.99032258064517)"><svg viewBox="0 0 396 248" data-background-color="#ffffff" preserveAspectRatio="xMidYMid meet" height="939" width="1500" xmlns="http://www.w3.org/2000/svg" xmlns:xlink="http://www.w3.org/1999/xlink"><g id="tight-bounds" transform="matrix(1,0,0,1,0.2400000000000091,0.4000000000000057)"><svg viewBox="0 0 395.52 247.2" height="247.2" width="395.52"><g><svg></svg></g><g><svg viewBox="0 0 395.52 247.2" height="247.2" width="395.52"><g transform="matrix(1,0,0,1,75.54432000000001,88.25161655506253)"><svg viewBox="0 0 244.43135999999996 70.69676688987494" height="70.69676688987494" width="244.43135999999996"><g><svg viewBox="0 0 244.43135999999996 70.69676688987494" height="70.69676688987494" width="244.43135999999996"><g><svg viewBox="0 0 244.43136 70.69676688987495" height="70.69676688987494" width="244.43135999999996"><g><svg viewBox="0 0 244.43136 70.69676688987495" height="70.69676688987495" width="244.43136"><g id="textblocktransform"><svg viewBox="0 0 244.43136 70.69676688987495" height="70.69676688987495" width="244.43136" id="textblock"><g><svg viewBox="0 0 244.43136 70.69676688987495" height="70.69676688987495" width="244.43136"><g transform="matrix(1,0,0,1,0,0)"><svg width="244.43136" viewBox="3.25 -35.01 121.03 35.01" height="70.69676688987495" data-palette-color="#202046"><path d="M31.25-35.01L31.25 0 23.75 0 10.25-23.05 10.25 0 3.25 0 3.25-35.01 10.74-35.01 24.24-11.94 24.24-35.01 31.25-35.01ZM61.74-7.01L61.74 0 37.74 0 37.74-35.01 61.74-35.01 61.74-28 44.75-28 44.75-21 56.25-21 56.25-13.99 44.75-13.99 44.75-7.01 61.74-7.01ZM83.1-17.5L93.84 0 85.35 0 78.61-11.3 71.85 0 63.4 0 74.14-17.5 63.4-35.01 71.85-35.01 78.61-23.71 85.35-35.01 93.84-35.01 83.1-17.5ZM113.54-17.5L124.28 0 115.79 0 109.05-11.3 102.29 0 93.84 0 104.58-17.5 93.84-35.01 102.29-35.01 109.05-23.71 115.79-35.01 124.28-35.01 113.54-17.5Z" opacity="1" transform="matrix(1,0,0,1,0,0)" fill="#000000" class="wordmark-text-0" data-fill-palette-color="primary" id="text-0"></path></svg></g></svg></g></svg></g></svg></g></svg></g></svg></g></svg></g><path d="M206.274 82.252L206.274 25.458 9.991 25.458 9.991 221.742 206.274 221.742 206.274 164.948 199.899 164.948 199.899 215.366 16.367 215.366 16.367 31.834 199.899 31.834 199.899 82.252Z" fill="#000000" stroke="transparent" data-fill-palette-color="tertiary"></path></svg></g><defs></defs></svg><rect width="395.52" height="247.2" fill="none" stroke="none" visibility="hidden"></rect></g></svg></g></svg>